<?xml version="1.0" encoding="UTF-8" standalone="no"?>
<svg
   xmlns:dc="http://purl.org/dc/elements/1.1/"
   xmlns:cc="http://creativecommons.org/ns#"
   xmlns:rdf="http://www.w3.org/1999/02/22-rdf-syntax-ns#"
   xmlns:svg="http://www.w3.org/2000/svg"
   xmlns="http://www.w3.org/2000/svg"
   xmlns:sodipodi="http://sodipodi.sourceforge.net/DTD/sodipodi-0.dtd"
   xmlns:inkscape="http://www.inkscape.org/namespaces/inkscape"
   width="40.046661mm"
   height="38.224178mm"
   viewBox="0 0 40.046661 38.224178"
   version="1.1"
   id="svg3494"
   inkscape:version="1.0.2 (e86c870879, 2021-01-15)"
   sodipodi:docname="instagram-icon.svg">
  <defs
     id="defs3488" />
  <sodipodi:namedview
     id="base"
     pagecolor="#ffffff"
     bordercolor="#666666"
     borderopacity="1.0"
     inkscape:pageopacity="0.0"
     inkscape:pageshadow="2"
     inkscape:zoom="3.9876329"
     inkscape:cx="106.38957"
     inkscape:cy="91.473814"
     inkscape:document-units="mm"
     inkscape:current-layer="layer1"
     inkscape:document-rotation="0"
     showgrid="false"
     inkscape:window-width="1686"
     inkscape:window-height="1003"
     inkscape:window-x="230"
     inkscape:window-y="36"
     inkscape:window-maximized="0" />
  <metadata
     id="metadata3491">
    <rdf:RDF>
      <cc:Work
         rdf:about="">
        <dc:format>image/svg+xml</dc:format>
        <dc:type
           rdf:resource="http://purl.org/dc/dcmitype/StillImage" />
        <dc:title></dc:title>
      </cc:Work>
    </rdf:RDF>
  </metadata>
  <g
     inkscape:label="Layer 1"
     inkscape:groupmode="layer"
     id="layer1"
     transform="translate(-141.75048,-78.405763)">
    <path
       d="m 154.10168,81.150374 c -5.29702,0 -9.60617,4.309181 -9.60617,9.605787 v 13.522329 c 0,5.29696 4.30915,9.60614 9.60617,9.60614 h 15.34475 c 5.29657,0 9.60575,-4.30918 9.60575,-9.60614 V 90.756161 c 0,-5.296606 -4.30918,-9.605787 -9.60575,-9.605787 z m 15.34475,35.479566 h -15.34475 c -6.81012,0 -12.3512,-5.54108 -12.3512,-12.35145 V 90.756161 c 0,-6.810023 5.54108,-12.350398 12.3512,-12.350398 h 15.34475 c 6.80963,0 12.35071,5.540375 12.35071,12.350398 v 13.522329 c 0,6.81037 -5.54108,12.35145 -12.35071,12.35145"
       style="fill:#ffffff;fill-opacity:1;fill-rule:nonzero;stroke:none;stroke-width:0.0352778"
       id="path1702" />
    <path
       d="m 161.77404,89.267791 c -4.5489,0 -8.24975,3.700639 -8.24975,8.249709 0,4.54872 3.70085,8.24936 8.24975,8.24936 4.5485,0 8.24921,-3.70064 8.24921,-8.24936 0,-4.54907 -3.70071,-8.249709 -8.24921,-8.249709 z m 0,19.244379 c -6.06267,0 -10.99397,-4.93218 -10.99397,-10.99467 0,-6.062839 4.9313,-10.993967 10.99397,-10.993967 6.06227,0 10.994,4.931128 10.994,10.993967 0,6.06249 -4.93173,10.99467 -10.994,10.99467"
       style="fill:#ffffff;fill-opacity:1;fill-rule:nonzero;stroke:none;stroke-width:0.0352778"
       id="path1704" />
    <path
       d="m 174.88093,86.861494 c 0,1.259417 -1.02094,2.280708 -2.28074,2.280708 -1.26023,0 -2.28191,-1.021291 -2.28191,-2.280708 0,-1.260122 1.02168,-2.281414 2.28191,-2.281414 1.2598,0 2.28074,1.021292 2.28074,2.281414"
       style="fill:#ffffff;fill-opacity:1;fill-rule:nonzero;stroke:none;stroke-width:0.0352778"
       id="path1706" />
  </g>
</svg>
