<?xml version="1.0" encoding="UTF-8" standalone="no"?>
<svg
   xmlns:dc="http://purl.org/dc/elements/1.1/"
   xmlns:cc="http://creativecommons.org/ns#"
   xmlns:rdf="http://www.w3.org/1999/02/22-rdf-syntax-ns#"
   xmlns:svg="http://www.w3.org/2000/svg"
   xmlns="http://www.w3.org/2000/svg"
   xmlns:sodipodi="http://sodipodi.sourceforge.net/DTD/sodipodi-0.dtd"
   xmlns:inkscape="http://www.inkscape.org/namespaces/inkscape"
   width="137.62917mm"
   height="168.01942mm"
   viewBox="0 0 137.62917 168.01942"
   version="1.1"
   id="svg1471"
   inkscape:version="1.0.1 (3bc2e813f5, 2020-09-07)"
   sodipodi:docname="logo-white.svg">
  <defs
     id="defs1465">
    <clipPath
       clipPathUnits="userSpaceOnUse"
       id="clipPath112">
      <path
         d="M 0,6000 H 3462.784 V 0 H 0 Z"
         id="path110" />
    </clipPath>
  </defs>
  <sodipodi:namedview
     id="base"
     pagecolor="#ffffff"
     bordercolor="#666666"
     borderopacity="1.0"
     inkscape:pageopacity="0.0"
     inkscape:pageshadow="2"
     inkscape:zoom="0.66049602"
     inkscape:cx="453.76127"
     inkscape:cy="163.16169"
     inkscape:document-units="mm"
     inkscape:current-layer="layer1"
     inkscape:document-rotation="0"
     showgrid="false"
     inkscape:window-width="1686"
     inkscape:window-height="1003"
     inkscape:window-x="230"
     inkscape:window-y="36"
     inkscape:window-maximized="0" />
  <metadata
     id="metadata1468">
    <rdf:RDF>
      <cc:Work
         rdf:about="">
        <dc:format>image/svg+xml</dc:format>
        <dc:type
           rdf:resource="http://purl.org/dc/dcmitype/StillImage" />
        <dc:title></dc:title>
      </cc:Work>
    </rdf:RDF>
  </metadata>
  <g
     inkscape:label="Layer 1"
     inkscape:groupmode="layer"
     id="layer1"
     transform="translate(-34.524719,-40.618012)">
    <g
       id="g106"
       transform="matrix(0.35277777,0,0,-0.35277777,-780.0805,2008.3585)"
       style="fill:#ffffff;fill-opacity:1">
      <g
         id="g108"
         clip-path="url(#clipPath112)"
         style="fill:#ffffff;fill-opacity:1">
        <g
           id="g114"
           transform="translate(2547.1406,5441.2217)"
           style="fill:#ffffff;fill-opacity:1">
          <path
             d="m 0,0 c 0.308,0.638 0.251,1.83 -6.213,8.953 -3.702,4.079 -5.553,6.119 -8.589,8.772 -5.844,5.106 -8.766,7.66 -11.511,8.04 -7.068,0.977 -14.386,-5.714 -17.36,-12.426 -0.204,-0.462 -4.109,-9.492 -0.73,-12.426 3.656,-3.174 10.331,5.577 20.831,3.472 5.515,-1.106 7.302,-4.249 15.715,-5.299 C -5.525,-1.205 -0.862,-1.788 0,0"
             style="fill:#ffffff;fill-opacity:1;fill-rule:nonzero;stroke:none"
             id="path116" />
        </g>
        <g
           id="g118"
           transform="translate(2495.7939,5415.8223)"
           style="fill:#ffffff;fill-opacity:1">
          <path
             d="M 0,0 C 0.095,-0.623 0.534,-3.505 1.645,-3.654 3.494,-3.905 4.5,3.801 8.588,9.867 16.277,21.278 31.379,21.706 31.063,23.023 30.753,24.317 15.876,25.28 6.578,16.08 5.694,15.206 -1.244,8.149 0,0"
             style="fill:#ffffff;fill-opacity:1;fill-rule:nonzero;stroke:none"
             id="path120" />
        </g>
        <g
           id="g122"
           transform="translate(2541.8408,5426.2373)"
           style="fill:#ffffff;fill-opacity:1">
          <path
             d="m 0,0 c -2.837,1.861 -4.721,0.719 -8.771,1.827 -5.454,1.493 -5.208,4.432 -8.771,4.751 -2.877,0.258 -6.464,-2.931 -13.521,-9.319 -5.645,-5.109 -6.522,-6.532 -7.127,-8.039 -1.734,-4.322 -1.621,-10.305 0.914,-11.513 2.547,-1.213 6.769,2.768 7.492,3.472 2.741,2.675 2.317,4.224 4.202,6.579 4.057,5.063 12.129,5.514 18.091,5.846 C -0.948,-6.03 2.718,-7.145 3.472,-5.481 4.135,-4.02 2.104,-1.38 0,0"
             style="fill:#ffffff;fill-opacity:1;fill-rule:nonzero;stroke:none"
             id="path124" />
        </g>
        <g
           id="g126"
           transform="translate(2572.7217,5438.4805)"
           style="fill:#ffffff;fill-opacity:1">
          <path
             d="m 0,0 c -11.896,-0.426 -14.759,-5.247 -26.495,-4.203 -3.684,0.328 -6.184,1.051 -6.578,0.182 -0.794,-1.744 7.704,-8.177 16.628,-12.424 8.816,-4.197 11.725,-3.248 19.369,-8.224 4.252,-2.767 7.776,-5.129 9.319,-9.501 1.959,-5.549 -0.659,-10.407 1.097,-11.329 1.675,-0.88 5.535,2.763 7.857,5.847 3.669,4.874 7.069,13.094 4.934,22.293 -0.54,2.323 -2.067,8.899 -7.858,13.338 C 12.448,0.445 5.635,0.201 0,0"
             style="fill:#ffffff;fill-opacity:1;fill-rule:nonzero;stroke:none"
             id="path128" />
        </g>
        <g
           id="g130"
           transform="translate(2480.0791,5436.1045)"
           style="fill:#ffffff;fill-opacity:1">
          <path
             d="m 0,0 c -10.148,-3.954 -11.225,-2.155 -14.984,-4.751 -7.998,-5.522 -10.03,-18.437 -7.857,-27.957 1.42,-6.221 5.824,-16.204 11.695,-16.263 4.858,-0.049 8.637,6.722 10.597,10.233 4.907,8.79 2.173,13.135 7.858,22.658 1.667,2.792 2.726,3.8 4.203,7.127 0.384,0.865 4.964,11.369 2.009,13.704 C 11.721,6.175 8.636,3.366 0,0"
             style="fill:#ffffff;fill-opacity:1;fill-rule:nonzero;stroke:none"
             id="path132" />
        </g>
        <g
           id="g134"
           transform="translate(2579.3008,5319.3418)"
           style="fill:#ffffff;fill-opacity:1">
          <path
             d="m 0,0 c -6.118,-1.493 -7.785,1.319 -15.532,-0.183 -6.71,-1.301 -6.75,-3.661 -13.523,-5.299 -2.381,-0.577 -11.17,-2.703 -18.82,1.096 -6.426,3.191 -4.447,6.788 -12.791,14.253 -6.647,5.946 -13.109,8.324 -20.283,10.964 -4.083,1.502 -9.473,3.443 -10.598,1.827 -0.954,-1.37 1.978,-4.113 4.934,-9.867 3.556,-6.926 2.512,-9.186 4.751,-14.07 4.649,-10.149 15.615,-14.482 18.272,-15.533 10.262,-4.055 19.452,-2.238 24.303,-1.278 13.53,2.675 14.218,8.483 28.871,10.78 6.727,1.055 9.301,0.258 13.888,2.742 C 12.297,0.21 15.898,10.271 14.983,10.964 14.077,11.647 9.771,2.384 0,0"
             style="fill:#ffffff;fill-opacity:1;fill-rule:nonzero;stroke:none"
             id="path136" />
        </g>
        <g
           id="g138"
           transform="translate(2532.1563,5321.5342)"
           style="fill:#ffffff;fill-opacity:1">
          <path
             d="m 0,0 c 3.633,-1.866 6.703,1.677 14.253,2.192 4.304,0.294 4.427,-0.78 8.405,-0.73 2.813,0.035 7.092,0.627 18.274,7.492 9.647,5.923 14.471,8.885 16.262,12.242 3.93,7.368 2.195,16.658 1.28,21.563 -0.853,4.562 -3.506,14.836 -0.732,17.907 0.247,0.273 1.31,1.344 1.462,2.924 0.105,1.08 -0.194,2.634 -0.913,2.923 C 56.553,67.214 51.664,60.811 48.606,54.271 43.949,44.312 46.792,40.997 42.941,33.622 40.395,28.743 36.31,25.802 28.141,19.917 17.843,12.501 12.48,8.639 4.568,7.675 1.553,7.308 -2.376,7.295 -3.106,5.299 -3.686,3.716 -2.167,1.113 0,0"
             style="fill:#ffffff;fill-opacity:1;fill-rule:nonzero;stroke:none"
             id="path140" />
        </g>
        <g
           id="g142"
           transform="translate(2512.6045,5343.6445)"
           style="fill:#ffffff;fill-opacity:1">
          <path
             d="m 0,0 c 14.091,-10.599 30.53,-5.955 32.708,-5.299 9.858,2.966 21.743,11.244 21.38,19.369 -0.097,2.145 -1.097,5.408 -3.107,6.03 -2.829,0.876 -5.601,-4.114 -8.954,-3.107 -1.173,0.353 -1.207,1.076 -3.471,3.473 -2.355,2.491 -4.284,4.531 -6.213,5.116 -4.22,1.279 -6.736,-4.926 -13.522,-7.127 C 10.449,15.74 1.872,21.158 0.365,22.11 -10.07,28.702 -11.388,40.589 -12.791,40.2 -14.794,39.645 -18.246,13.724 0,0"
             style="fill:#ffffff;fill-opacity:1;fill-rule:nonzero;stroke:none"
             id="path144" />
        </g>
        <g
           id="g146"
           transform="translate(2556.459,5368.6777)"
           style="fill:#ffffff;fill-opacity:1">
          <path
             d="m 0,0 c 1.049,-1.249 5.771,0.44 9.867,3.106 4.359,2.837 13.386,8.714 13.888,19.736 0.468,10.269 -6.758,18.583 -14.07,21.744 -7.064,3.055 -15.169,1.717 -15.532,0 C -6.195,42.938 0.861,42.253 3.106,36.729 4.831,32.487 3.062,27.01 2.011,23.755 0.841,20.134 -0.642,17.854 0.183,14.619 0.696,12.604 1.479,12.678 2.011,10.781 3.444,5.666 -1.211,1.444 0,0"
             style="fill:#ffffff;fill-opacity:1;fill-rule:nonzero;stroke:none"
             id="path148" />
        </g>
        <g
           id="g150"
           transform="translate(2513.8838,5402.4834)"
           style="fill:#ffffff;fill-opacity:1">
          <path
             d="m 0,0 c -1.088,0.248 -9.966,-11.754 -4.386,-22.842 4.179,-8.303 14.859,-12.898 22.293,-9.502 6.001,2.742 8.361,9.994 8.04,10.234 -0.293,0.218 -3.733,-4.791 -5.481,-4.021 -0.904,0.399 -0.319,1.881 -1.279,3.107 -1.984,2.527 -6.94,-0.64 -11.512,1.279 C 3.93,-20.174 2.35,-15.99 1.279,-13.157 -1.439,-5.961 0.729,-0.167 0,0"
             style="fill:#ffffff;fill-opacity:1;fill-rule:nonzero;stroke:none"
             id="path152" />
        </g>
        <g
           id="g154"
           transform="translate(2540.3789,5413.2637)"
           style="fill:#ffffff;fill-opacity:1">
          <path
             d="m 0,0 c -0.661,1.927 -6.428,2.078 -10.78,0.914 -1.768,-0.473 -9.617,-2.571 -11.878,-9.502 -2.256,-6.917 2.403,-14.511 4.02,-14.253 1.701,0.271 -1.136,9.041 3.837,13.339 3.463,2.992 7.818,1.317 12.609,5.848 C -1.246,-2.76 0.41,-1.193 0,0"
             style="fill:#ffffff;fill-opacity:1;fill-rule:nonzero;stroke:none"
             id="path156" />
        </g>
        <g
           id="g158"
           transform="translate(2547.8711,5403.3965)"
           style="fill:#ffffff;fill-opacity:1">
          <path
             d="m 0,0 c -5.336,3.674 -12.655,1.872 -12.791,0.73 -0.129,-1.081 6.288,-0.766 8.954,-5.116 3.078,-5.023 -1.719,-11.583 0.183,-12.791 1.694,-1.076 7.965,2.579 8.588,8.04 C 5.528,-3.921 0.589,-0.405 0,0"
             style="fill:#ffffff;fill-opacity:1;fill-rule:nonzero;stroke:none"
             id="path160" />
        </g>
        <g
           id="g162"
           transform="translate(2533.0703,5384.21)"
           style="fill:#ffffff;fill-opacity:1">
          <path
             d="M 0,0 C 5.372,1.94 4.78,15.286 4.385,15.35 4.128,15.391 4.489,9.727 0.548,6.213 -2.638,3.372 -6.502,3.839 -6.578,2.559 -6.656,1.26 -2.793,-1.009 0,0"
             style="fill:#ffffff;fill-opacity:1;fill-rule:nonzero;stroke:none"
             id="path164" />
        </g>
        <g
           id="g166"
           transform="translate(2698.2559,5448.7129)"
           style="fill:#ffffff;fill-opacity:1">
          <path
             d="m 0,0 c -1.302,2.304 -3.548,3.059 -8.039,4.568 -2.097,0.705 -5.181,1.717 -9.137,1.828 -5.437,0.152 -9.017,-1.498 -13.156,-2.924 -13.161,-4.534 -14.504,-0.794 -24.12,-4.934 -9.432,-4.059 -14.896,-10.564 -15.532,-9.867 -0.541,0.593 3.373,5.319 5.116,7.309 3.548,4.05 4.932,4.559 5.665,6.944 0.968,3.152 0.162,7.516 -1.827,8.222 -3.051,1.083 -9.769,-6.114 -12.609,-14.07 -2.144,-6.005 -0.439,-7.85 -3.106,-13.339 -1.816,-3.734 -4.286,-6.356 -6.054,-8.031 -0.929,3.407 -2.14,5.301 -3.631,6.752 -1.101,1.073 -2.398,1.953 -3.746,2.64 1.427,3.456 3.585,10.174 5.026,14.172 3.635,10.09 3.68,14.573 2.922,18.089 -0.309,1.439 -0.556,1.803 -0.547,2.924 0.036,4.835 5.708,5.126 9.319,12.791 1.569,3.33 2.539,6.697 6.03,8.953 1.647,1.066 3.084,1.385 3.472,2.742 0.579,2.028 -1.54,5.139 -4.021,5.665 -3.25,0.686 -6.378,-3.223 -8.04,-5.3 -5.281,-6.601 -5.308,-13.24 -6.395,-13.156 -0.407,0.031 -1.188,1.022 -1.827,18.638 -0.349,9.59 -0.508,14.441 0.182,17.176 1.273,5.037 3.088,7.244 2.011,10.964 -0.817,2.82 -3.248,6.334 -6.762,6.761 -2.36,0.287 -4.215,-0.92 -4.751,-1.279 -4.757,-3.192 -4.621,-10.775 -4.567,-13.705 0.054,-3.008 0.577,-6.032 2.01,-10.232 3.6,-10.559 8.163,-11.05 10.232,-20.101 0.967,-4.225 1.163,-9.279 1.214,-10.599 0.114,-2.933 -0.066,-5.29 -0.117,-7.673 -0.144,-6.687 -0.552,-11.973 -1.497,-17.21 -0.532,-2.943 -1.092,-5.092 -1.61,-7.093 -1.486,-5.751 -2.953,-9.759 -3.724,-11.899 -3.53,1.408 -7.067,1.495 -8.154,0.021 -2.145,-2.908 7.644,-8.567 7.858,-19.003 0.159,-7.712 -5.104,-8.628 -8.953,-20.831 -2.009,-6.369 -2.132,-11.921 -2.376,-23.024 -0.203,-9.246 -0.479,-21.76 3.106,-22.659 0.417,-0.104 1.057,-0.094 4.021,2.376 5.343,4.453 10.843,9.037 11.877,16.081 0.244,1.659 -0.067,1.375 -0.183,5.846 -0.167,6.432 0.367,11.11 0.914,16.08 2.342,21.317 2.412,25.4 1.645,30.516 -0.192,1.27 -0.41,2.362 -0.642,3.372 1.633,0.96 3.805,2.573 5.758,4.851 2.955,3.448 3.727,6.461 6.761,7.127 1.393,0.305 1.324,-0.311 3.471,-0.183 4.276,0.254 5.724,2.766 8.406,2.192 1.541,-0.329 2.346,-1.433 3.106,-2.192 5.449,-5.443 20.42,-5.031 24.852,1.462 1.225,1.796 1.974,4.542 0.913,5.846 -1.217,1.498 -3.969,0.058 -9.32,0.366 -4.22,0.244 -4.456,1.253 -8.222,1.645 -7.455,0.777 -12.851,-2.519 -12.974,-2.193 -0.147,0.392 7.201,6.45 15.898,5.482 4.093,-0.456 7.099,-2.314 13.339,-1.828 2.369,0.185 2.525,0.499 4.02,0.366 5.062,-0.45 6.36,-4.319 11.146,-6.761 4.399,-2.244 11.485,-3.152 14.619,0.366 C 1.31,-6.663 1.515,-2.678 0,0"
             style="fill:#ffffff;fill-opacity:1;fill-rule:nonzero;stroke:none"
             id="path168" />
        </g>
        <g
           id="g170"
           transform="translate(2478.6514,5349.4072)"
           style="fill:#ffffff;fill-opacity:1">
          <path
             d="m 0,0 c 1.812,-0.673 3.918,-1.354 6.483,-2.169 8.352,-2.655 13.501,-4.292 15.593,-1.949 2.016,2.258 0.141,7.036 -0.731,9.258 -2.916,7.431 -7.116,7.032 -9.745,13.156 -1.983,4.618 -1.398,9.047 -0.245,17.786 0.776,5.868 1.512,6.039 2.194,11.451 1.224,9.721 -0.067,17.779 -0.732,17.785 -0.798,0.008 1.908,-11.646 -4.691,-20.682 -4.501,-6.162 -8.619,-4.657 -14.822,-12.397 -2.529,-3.155 -6.45,-8.046 -6.312,-14.917 0.002,-0.126 0.028,-0.236 0.033,-0.36 -2.845,-0.472 -6.609,-0.628 -9.535,1.578 -1.786,1.347 -1.275,2.079 -3.471,4.02 -3,2.651 -8.118,4.967 -12.426,3.29 -1.833,-0.715 -4.323,-2.465 -4.203,-4.386 0.122,-1.946 2.871,-3.22 4.203,-3.838 3.623,-1.679 6.481,-1.067 6.578,-1.645 0.142,-0.839 -5.99,-1.77 -12.974,-5.116 -2.051,-0.982 -6.465,-3.27 -11.146,-7.308 -3.817,-3.293 -5.901,-6.046 -8.771,-9.868 -4.074,-5.423 -4.241,-7.044 -3.838,-8.223 0.652,-1.903 2.956,-3.133 4.934,-3.289 5.478,-0.432 9.685,7.278 10.599,8.954 1.865,3.419 0.546,5.038 2.741,8.953 0.331,0.593 0.43,0.695 3.106,5.117 1.894,3.128 1.863,3.107 2.01,3.289 3.054,3.771 9.236,4.183 9.502,3.472 0.191,-0.516 -2.896,-1.167 -6.213,-4.568 -0.858,-0.88 -5.612,-5.752 -4.203,-10.05 0.167,-0.508 0.641,-1.954 1.827,-2.376 2.42,-0.86 6.125,3.133 8.04,6.03 0.82,1.24 0.817,1.53 5.117,10.416 0.729,1.505 1.65,3.347 3.289,3.654 1.299,0.244 2.421,-0.594 2.923,-0.914 3.095,-1.966 8.408,-0.593 12.078,0.985 0.843,-5.781 4.292,-9.666 5.125,-10.555 1.747,-1.863 3.811,-3.059 6.735,-4.218 -1.78,-6.221 -5.553,-19.168 -7.491,-24.036 -3.909,-9.811 -6.055,-13.285 -9.868,-15.715 -4.432,-2.824 -6.828,-1.504 -11.33,-5.116 -0.828,-0.665 -7.416,-6.106 -6.76,-13.156 0.224,-2.412 1.398,-6.108 3.655,-6.578 2.459,-0.514 5.016,3.05 6.761,5.481 3.396,4.733 1.82,6.941 4.933,11.694 2.102,3.21 2.94,2.555 6.03,6.761 3.141,4.276 4.414,7.862 4.934,7.675 0.73,-0.265 -2.836,-7.001 -0.184,-13.156 0.338,-0.783 2.047,-4.748 5.118,-4.934 2.363,-0.142 4.947,1.988 5.481,4.386 0.711,3.187 -2.623,4.974 -4.934,10.963 -1.473,3.82 -1.627,6.132 -1.644,7.309 -0.041,2.881 0.658,5.039 0.914,5.848 C -3.14,-15.279 -0.962,-4.841 0,0"
             style="fill:#ffffff;fill-opacity:1;fill-rule:nonzero;stroke:none"
             id="path172" />
        </g>
        <g
           id="g174"
           transform="translate(2555.5127,5535.5703)"
           style="fill:#ffffff;fill-opacity:1">
          <path
             d="m 0,0 c 1.924,-6.146 2.981,-7.504 2.802,-10.964 -0.226,-4.35 -2.17,-7.474 -1.672,-7.735 0.266,-0.141 1.145,0.595 4.019,4.933 0.409,-1.118 0.947,-2.816 1.28,-4.933 0.943,-5.992 -0.529,-10.367 0.182,-10.599 0.342,-0.111 1.157,0.744 3.289,5.299 1.052,-6.325 3.268,-10.595 5.117,-13.339 1.699,-2.521 7.024,-14.894 10.233,-14.07 1.381,0.355 1.744,2.972 2.25,2.833 0.52,-0.145 0.502,-3.001 -0.365,-5.848 -0.9,-2.954 -1.916,-3.272 -2.251,-5.573 -0.361,-2.474 0.332,-5.416 1.52,-5.665 1.034,-0.216 2.333,1.634 2.866,2.924 0.759,1.844 0.368,3.553 0.182,4.203 0.852,-1.191 1.752,-2.877 1.827,-4.934 0.206,-5.577 -5.826,-9.156 -4.601,-11.208 0.884,-1.48 4.765,-0.85 4.993,-0.811 2.05,0.35 3.038,1.462 3.291,1.177 0.353,-0.398 -1.121,-3.047 -3.654,-4.02 -1.205,-0.462 -1.553,-0.125 -2.681,-0.487 -2.145,-0.69 -4.061,-2.949 -4.414,-5.058 -0.667,-3.976 5.163,-7.322 4.326,-8.646 -0.603,-0.955 -3.533,0.946 -8.589,0.913 -4.834,-0.032 -6.622,-1.719 -7.675,-0.731 -1.834,1.722 3.302,7.108 4.901,15.349 1.534,7.904 -0.93,14.603 -4.385,23.999 -2.418,6.574 -5.208,11.664 -8.162,17.053 -5.081,9.272 -7.364,11.492 -9.015,17.299 -1.815,6.387 -1.432,12.073 -0.889,15.705 -0.877,-3.112 -1.813,-7.994 -0.816,-13.633 1.263,-7.145 4.64,-9.93 10.111,-20.223 4.255,-8.006 6.622,-14.615 7.674,-17.785 3.814,-11.478 5.959,-17.939 3.411,-24.12 -1.597,-3.876 -4.871,-7.231 -5.914,-12.041 -0.131,-0.611 -0.426,-2.156 -1.685,-3.266 -1.164,-1.026 -2.636,-1.225 -4.53,-1.457 -2.424,-0.297 -3.632,-0.478 -4.441,-0.06 -2.179,1.125 -1.113,3.775 -4.021,6.947 -0.45,0.489 -1.111,1.119 -1.895,2.261 -0.228,0.334 -1.832,2.67 -1.39,3.108 0.431,0.428 2.155,-1.611 5.116,-2.315 3.191,-0.756 6.436,0.368 6.457,1.097 0.028,1.027 -6.49,0.401 -8.65,4.386 -0.704,1.299 -0.523,2.216 -1.705,3.654 -1.389,1.693 -2.528,1.508 -3.898,2.924 -1.976,2.042 -2.521,5.433 -1.705,5.969 0.82,0.541 2.629,-2.074 7.43,-4.994 2.754,-1.675 7.018,-3.771 7.553,-3.046 0.443,0.599 -1.651,3.147 -3.898,4.873 -2.233,1.714 -3.083,1.438 -5.116,2.924 -3.359,2.452 -5.137,6.195 -4.658,6.638 0.342,0.316 1.711,-1.137 5.267,-2.984 1.583,-0.822 5.019,-2.46 5.359,-1.949 0.454,0.679 -5.651,3.55 -8.283,10.141 -0.727,1.821 -0.419,2.117 -1.611,5.939 -0.705,2.259 -1.703,5.131 -3.107,8.406 0.255,-0.149 3.089,-1.77 4.386,-0.731 1.289,1.032 0.598,4.324 -1.039,6.303 -1.697,2.055 -3.284,1.331 -6.212,3.473 -0.701,0.512 -3.401,2.52 -4.477,5.847 -0.848,2.622 0.208,3.303 -0.366,7.887 -0.368,2.945 -1.089,4.947 -0.73,5.086 0.525,0.206 1.77,-4.256 5.771,-6.182 0.4,-0.193 2.421,-1.16 2.908,-0.579 1.051,1.254 -7.528,6.761 -7.461,14.223 0.028,3.187 1.623,5.459 3.776,8.527 3.227,4.599 9.974,11.318 13.766,9.614 C -2.066,11.104 -2.879,9.191 0,0"
             style="fill:#ffffff;fill-opacity:1;fill-rule:nonzero;stroke:none"
             id="path176" />
        </g>
        <g
           id="g178"
           transform="translate(2539.4658,5485.4414)"
           style="fill:#ffffff;fill-opacity:1">
          <path
             d="m 0,0 c -0.157,0.251 -1.505,-0.571 -3.962,-1.005 -2.338,-0.413 -4.999,-0.353 -5.116,0.183 -0.204,0.933 7.587,2.029 7.981,5.208 0.199,1.593 -1.253,2.771 -3.289,4.933 -1.486,1.578 -2.915,4.435 -2.5,10.05 -1.054,-1.4 -2.109,-2.802 -3.164,-4.202 -0.535,2.055 -1.29,5.123 -2.044,8.893 -1.08,5.402 -1.794,10.419 -2.101,10.384 -0.166,-0.018 -0.036,-1.507 -0.366,-4.294 -0.246,-2.087 -0.378,-3.215 -0.739,-3.267 -0.671,-0.097 -1.459,3.638 -3.25,8.139 -1.327,3.336 -2.762,5.982 -3.868,7.828 -0.08,-1.432 -0.16,-2.863 -0.24,-4.294 -2.304,0.911 -5.532,2.561 -8.256,5.664 -3.245,3.696 -3.379,6.721 -6.213,11.33 -1.55,2.519 -4.154,5.913 -8.68,9.227 -2.046,-3.752 -3.297,-4.439 -4.078,-4.294 -2.002,0.371 -1.16,6.038 -4.236,12.791 -0.683,1.498 -3.683,4.532 -9.685,10.598 -4.544,4.594 -6.956,6.329 -10.232,7.492 -2.15,0.763 -4.497,1.597 -6.578,0.548 -2.696,-1.357 -3.268,-5.028 -4.021,-9.867 -0.413,-2.654 -0.787,-6.611 -0.332,-11.512 -1.178,-3.263 -0.792,-5.302 -0.182,-6.578 0.864,-1.811 2.265,-2.275 4.019,-4.751 1.186,-1.672 1.83,-3.273 2.194,-4.386 -1.107,-0.245 -2.785,-0.428 -4.145,0.457 -1.915,1.246 -1.952,3.794 -2.434,3.746 -0.632,-0.063 -1.639,-4.555 -0.216,-9.411 1.364,-4.649 4.784,-9.045 4.785,-9.045 2.802,-0.569 5.011,-1.411 6.544,-2.101 1.421,-0.64 2.981,-1.355 4.751,-2.74 1.676,-1.313 2.83,-2.67 3.563,-3.656 -3.224,-0.843 -4.889,-0.308 -5.816,0.457 -0.877,0.724 -1.323,1.841 -1.462,1.767 -0.187,-0.099 0.267,-1.612 1.035,-2.924 1.273,-2.174 2.588,-2.389 4.508,-4.324 2.19,-2.209 1.66,-3.12 3.322,-4.751 1.23,-1.206 3.364,-2.517 7.309,-2.741 l -4.02,-1.462 c 1.34,-0.731 2.68,-1.462 4.02,-2.193 0.883,-0.951 1.985,-2.339 2.923,-4.203 0.762,-1.51 1.201,-2.907 1.462,-4.019 -1.705,-0.305 -3.411,-0.61 -5.116,-0.914 6.174,-1.974 7.744,-3.041 7.642,-3.655 -0.149,-0.884 -3.171,-0.838 -3.257,-1.644 -0.216,-2.045 15.263,-5.444 14.951,-7.858 -0.084,-0.648 -1.29,-1.025 -2.101,-1.279 -3.162,-0.988 -6.046,0.572 -6.122,0.365 -0.065,-0.177 2.046,-1.4 5.513,-2.455 3.524,-1.073 5.797,-0.987 5.817,-1.472 0.018,-0.481 -2.174,-1.016 -3.879,-1.238 -3.764,-0.489 -6.21,0.406 -6.322,0.049 -0.052,-0.171 0.412,-0.699 8.556,-3.928 4.398,-1.745 4.958,-1.919 5.847,-1.918 1.154,0 4.96,0.294 9.179,6.299 -0.008,2.594 -0.257,5.912 -1.23,9.689 -0.383,1.483 -1.078,3.818 -3.838,9.594 -2.697,5.645 -5.042,10.551 -8.77,15.896 -4.334,6.213 -8.478,10.067 -10.142,11.695 -5.967,5.837 -13.933,16.188 -22.658,35.997 3.575,-6.84 9.362,-16.894 17.999,-28.048 7.348,-9.493 8.899,-9.628 14.435,-17.36 10.356,-14.462 17.364,-31.351 17.114,-37.26 2.168,-0.2 4.035,-1.085 5.669,-1.934 6.238,-3.24 6.593,-7.685 9.043,-7.492 2.661,0.209 5.324,4.279 4.435,6.124 -1.038,2.155 -6.852,0.995 -7.024,2.098 -0.112,0.711 2.293,1.24 5.39,3.564 2.289,1.718 4.093,3.767 3.837,4.111 C 1.924,-4.982 0.128,-6.373 -3.231,-7.31 -3.917,-7.5 -7.762,-8.571 -8.165,-7.766 -8.836,-6.426 0.411,-0.658 0,0"
             style="fill:#ffffff;fill-opacity:1;fill-rule:nonzero;stroke:none"
             id="path180" />
        </g>
        <g
           id="g182"
           transform="translate(2410.2891,5500.9277)"
           style="fill:#ffffff;fill-opacity:1">
          <path
             d="m 0,0 c 0.233,4.88 0.38,7.342 1.815,8.451 2.607,2.015 7.303,0.087 7.961,-0.182 3.061,-1.257 3.364,-2.87 6.078,-3.46 2.668,-0.581 4.309,0.556 5.854,0.71 2.864,0.285 7.322,-2.638 14.095,-17.716 0.182,1.34 0.365,2.679 0.548,4.02 1.827,-1.523 3.654,-3.046 5.482,-4.568 -0.184,1.279 -0.366,2.557 -0.549,3.837 2.132,0.122 4.264,0.244 6.396,0.365 1.462,-1.035 2.924,-2.07 4.385,-3.106 v 3.655 c 9.391,1.48 14.177,-0.68 16.811,-2.924 3.395,-2.892 2.565,-5.368 9.137,-14.983 4.405,-6.447 6.536,-7.907 7.308,-8.407 3.614,-2.335 8.173,-3.152 8.041,-4.567 -0.061,-0.655 -1.054,-0.762 -2.116,-2.414 -0.85,-1.325 -0.558,-1.797 -1.023,-2.064 -1.385,-0.792 -4.528,3.075 -12.028,9.228 -0.404,0.332 -0.985,0.809 -1.465,1.186 -2.666,2.093 -8.746,6.238 -20.444,8.908 -8.677,1.98 -9.244,0.594 -17.137,2.971 -0.777,0.235 -4.65,1.416 -9.564,3.6 -3.315,1.473 -7.106,3.157 -11.449,6.177 -2.735,1.9 -6.407,4.831 -10.142,9.136 0.796,-1.164 1.978,-2.779 3.564,-4.569 2.921,-3.297 8.723,-8.894 19.734,-13.43 12.249,-5.045 13.511,-1.594 28.415,-7.035 0,0 11.204,-4.09 16.296,-8.954 0.276,-0.263 1.785,-1.672 3.921,-3.448 0.719,-0.599 1.574,-1.266 2.657,-2.033 2.983,-2.116 4.2,-2.524 4.568,-4.021 0.589,-2.4 -1.599,-5.199 -3.106,-7.126 -0.397,-0.508 -1.098,-1.402 -2.193,-2.375 -2.37,-2.105 -4.58,-2.803 -7.617,-3.929 -8.487,-3.146 -9.007,-4.286 -11.786,-3.929 -2.447,0.315 -4.309,1.491 -5.448,2.376 1.639,-0.144 3.689,-0.057 4.656,1.218 0.805,1.06 0.186,2.05 0.975,3.046 1.484,1.87 5.043,0.099 5.827,1.476 0.688,1.208 -1.055,4.323 -3.601,5.041 -0.068,0.019 -0.11,0.055 -0.197,0.05 -7.846,-0.445 -13.507,-2.06 -13.508,-2.06 -2.859,-0.816 -7.073,-1.136 -12.973,1.096 l 0.914,3.472 c -3.838,0.061 -7.675,0.122 -11.512,0.182 3.107,0.914 6.212,1.828 9.318,2.742 -1.811,0.806 -4.709,1.896 -8.405,2.376 -4.262,0.551 -5.973,-0.176 -8.588,0.547 -2.412,0.667 -5.699,2.598 -8.771,8.588 1.51,-0.461 3.662,-1.002 4.02,-0.365 0.265,0.471 -0.547,1.409 -1.279,2.192 -3.409,3.655 -6.023,4.988 -7.675,6.58 -1.491,1.437 -3.153,4.007 -3.471,8.953 h 4.385 c -2.019,0.955 -4.855,2.778 -6.395,6.03 C -0.345,-7.211 -0.23,-4.807 0,0"
             style="fill:#ffffff;fill-opacity:1;fill-rule:nonzero;stroke:none"
             id="path184" />
        </g>
        <g
           id="g186"
           transform="translate(2617.7715,5391.2471)"
           style="fill:#ffffff;fill-opacity:1">
          <path
             d="m 0,0 c -0.079,-1.354 -0.298,-3.229 -0.722,-5.86 29.741,0.338 49.947,0.55 49.947,0.55 2.332,0.297 24.35,1.296 24.333,2.468 C 73.539,-1.679 51.582,-0.908 49.225,-0.68 36.814,-0.48 19.737,-0.25 0,0"
             style="fill:#ffffff;fill-opacity:1;fill-rule:nonzero;stroke:none"
             id="path188" />
        </g>
        <g
           id="g190"
           transform="translate(2377.3047,5330.5762)"
           style="fill:#ffffff;fill-opacity:1">
          <path
             d="m 0,0 c 0.09,1.648 0.362,6.668 3.479,8.325 0.655,0.349 1.51,0.593 2.362,0.593 0.594,0 1.187,-0.12 1.709,-0.404 C 9.963,7.198 9.869,2.798 9.851,2.302 9.659,-2.688 5.573,-6.485 2.035,-9.235 0.771,-6.702 -0.192,-3.553 0,0 m 12.951,57.829 c 0,1.345 1.091,2.436 2.437,2.436 H 30.98 c 1.346,0 2.437,-1.091 2.437,-2.436 v -0.61 c 0,-1.346 -1.091,-2.437 -2.437,-2.437 H 15.388 c -1.346,0 -2.437,1.091 -2.437,2.437 z m -9.723,-69.17 c 3.841,2.96 8.781,7.419 9.016,13.553 0.057,1.487 -0.035,6.49 -3.547,8.405 C 6.508,11.812 3.91,11.27 2.354,10.44 -1.956,8.149 -2.283,2.112 -2.392,0.129 c -0.228,-4.224 0.975,-7.921 2.49,-10.828 -0.627,-0.466 -1.197,-0.892 -1.677,-1.277 -10.391,-8.322 -27.588,-13.48 -42.585,-6.251 -18.256,8.799 -21.38,30.364 -21.616,42.435 -0.449,22.971 13.358,46.982 28.415,49.409 5.351,0.863 10.187,0.094 13.984,-2.217 3.082,-1.876 4.496,-4.191 5.992,-6.641 1.393,-2.28 2.832,-4.638 5.626,-6.647 4.561,-3.28 10.939,-4.172 18.935,-2.715 0.858,-2.243 3.016,-3.842 5.561,-3.842 15.161,0.391 41.23,0.837 71.481,1.282 -1.06,1.265 -2.043,2.729 -2.819,4.513 -0.572,1.313 -1.359,3.156 -1.42,5.24 -27.338,0.335 -51.19,0.645 -67.242,0.903 -3.215,0 -5.819,-2.549 -5.945,-5.734 -7.351,-1.345 -13.131,-0.595 -17.151,2.298 -2.401,1.726 -3.654,3.779 -4.981,5.951 -1.579,2.587 -3.213,5.261 -6.79,7.44 -4.289,2.611 -9.685,3.487 -15.615,2.534 -16.403,-2.644 -30.905,-27.343 -30.427,-51.822 0.248,-12.621 3.563,-35.189 22.971,-44.544 5.332,-2.571 10.917,-3.674 16.401,-3.674 10.908,0.002 21.417,4.365 28.722,10.213 0.406,0.324 0.877,0.679 1.394,1.063 1.337,-2.073 2.691,-3.546 3.406,-4.262 4.327,-4.34 9.369,-6.149 12.835,-6.904 0,0 -7.223,4.669 -11.139,8.595 -0.665,0.667 -1.943,2.057 -3.186,4.012"
             style="fill:#ffffff;fill-opacity:1;fill-rule:nonzero;stroke:none"
             id="path192" />
        </g>
      </g>
    </g>
    <g
       aria-label="SW"
       id="text196"
       style="font-variant:normal;font-weight:normal;font-stretch:normal;font-size:53.8678px;font-family:'Bintari Italic';-inkscape-font-specification:BintariItalic;writing-mode:lr-tb;fill:#ffffff;fill-opacity:1;fill-rule:nonzero;stroke:none;stroke-width:0.352777">
      <path
         d="m 99.047872,184.28918 c -0.107735,-0.32321 -0.48481,-0.43094 -0.808017,-0.26934 -2.801125,1.45443 -7.649228,1.83151 -12.766669,2.15471 0.215471,-2.96273 0.05387,-5.92545 -0.161603,-8.88818 -0.48481,-5.49452 -1.292827,-10.55809 -1.131224,-15.08299 0.107736,-2.26245 0.538678,-4.36329 1.454431,-6.08706 0.808017,-1.72377 2.316315,-3.1782 3.770746,-4.04008 1.562166,-0.91576 3.124332,-1.29283 4.255556,-1.02349 0.754149,0.21547 1.292827,0.64641 1.669902,1.13122 1.185092,1.77764 1.131224,4.8481 -0.215471,8.0263 -0.161604,0.32321 0,0.64642 0.323207,0.75415 0.323206,0.0539 0.700281,-0.1616 0.808017,-0.48481 1.885373,-4.30942 1.562166,-8.34951 -0.75415,-10.18101 -0.269339,-0.21547 -0.538678,-0.37708 -0.861884,-0.48481 -0.05387,-0.0539 -0.107736,-0.10774 -0.161604,-0.16161 -1.454431,-0.70028 -3.609143,-0.53867 -5.709987,0.32321 -2.154712,0.91575 -4.363292,2.53179 -5.925458,4.95584 -1.562166,2.37018 -2.316315,5.11744 -2.69339,7.75696 -0.700282,5.27905 -0.107736,10.55809 0.323207,15.94487 0.215471,2.69339 0.430942,5.33291 0.430942,7.8647 -2.962729,0.26934 -5.87159,0.59255 -8.672716,1.18509 -7.649228,1.72377 -13.520818,5.87159 -15.67553,11.09677 -1.346695,3.3398 -0.808017,6.518 1.346695,8.29564 1.238959,1.07736 2.962729,1.56217 4.955838,1.56217 1.45443,0 3.124332,-0.26934 4.90197,-0.86189 1.777637,-0.37707 3.824613,-1.07735 6.194797,-2.20858 1.939241,-0.91575 4.040085,-2.37018 5.87159,-4.41716 1.885373,-1.99311 3.339804,-4.57876 4.255556,-7.27215 0.700282,-2.15471 1.077356,-4.30942 1.292828,-6.46414 5.279044,-0.3232 10.181014,-0.70028 13.251479,-2.26244 0.323207,-0.16161 0.538678,-0.59255 0.430942,-0.86189 z m -41.316604,14.70591 c 1.939241,-4.74037 7.379889,-8.51111 14.490439,-10.07328 2.747258,-0.59254 5.709987,-0.91575 8.672716,-1.18509 -0.05387,2.04698 -0.269339,3.98622 -0.754149,5.81772 -0.969621,4.41716 -3.824614,7.97244 -7.11055,10.07328 -2.20858,1.40056 -4.255556,2.47792 -6.033194,3.12433 -3.501407,1.02349 -6.3564,0.80802 -8.187906,-0.70028 -1.777637,-1.5083 -2.208579,-4.20169 -1.077356,-7.05668 z"
         style="fill:#ffffff;fill-opacity:1;stroke-width:0.352777"
         id="path2130" />
      <path
         d="m 150.27616,144.53474 c -0.32321,-1.56216 -1.07736,-2.96273 -2.42405,-4.20169 -0.21547,-0.21547 -0.64642,-0.1616 -0.91576,0.10774 -0.26933,0.26934 -0.26933,0.64641 -0.0539,0.86189 0.96962,0.91575 1.61603,1.93924 1.9931,3.07046 0.21548,1.29283 0.16161,2.96273 -0.48481,4.90197 -1.8315,5.60225 -7.59536,12.60507 -14.05949,20.25429 -6.46414,7.64923 -12.33573,14.92138 -15.83714,20.63137 -1.13122,1.77764 -1.93924,3.33981 -2.58565,4.6865 -1.07736,1.72377 -1.88537,3.39367 -2.37018,4.8481 -0.26934,0.70028 -0.43095,1.23896 -0.53868,1.77764 -0.26934,-0.59255 -0.43094,-1.29283 -0.37708,-2.26245 -0.10773,-3.1782 1.66991,-7.81083 3.39368,-13.14374 1.72377,-5.27905 2.96273,-10.45036 2.53178,-14.11337 0,-0.91575 -0.3232,-1.72377 -0.48481,-2.37018 -0.0539,-0.10773 -0.10773,-0.1616 -0.10773,-0.21547 -0.26934,-1.02349 -0.64642,-1.88537 -1.3467,-2.58565 0,0 0,0 0,0 0,-0.0539 0,-0.0539 0,-0.0539 -0.0539,0 -0.0539,-0.0539 -0.0539,-0.0539 -0.0539,-0.0539 -0.10773,-0.0539 -0.1616,-0.0539 -0.10774,-0.0539 -0.1616,-0.0539 -0.21547,-0.0539 -0.10774,0 -0.1616,0 -0.26934,0.0539 -0.0539,0 -0.10774,0 -0.1616,0.0539 0,0 0,0 -0.0539,0.0539 0,0 -0.0539,0 -0.0539,0.0539 -0.0539,0 -0.0539,0.10773 -0.10773,0.1616 -0.0539,0.0539 -0.0539,0.10773 -0.10774,0.21547 0,0.0539 0,0.10774 0.0539,0.21547 0,0.0539 -0.0539,0.10774 0,0.1616 2.63952,4.6865 -3.50141,11.74319 -8.94206,17.88411 -3.1782,3.66302 -6.19479,7.05669 -7.056679,9.69621 -0.269339,0.70028 -0.430943,1.29283 -0.538678,1.8315 -0.161604,-0.1616 -0.215471,-0.37707 -0.323207,-0.53867 -0.161603,-0.59255 -0.215471,-1.29283 -0.161603,-2.15472 0.269339,-3.60914 2.424047,-8.94205 4.309427,-14.92138 1.88537,-5.97932 3.12433,-11.74318 2.90886,-15.78326 -0.0539,-1.13123 -0.26934,-2.10085 -0.48481,-2.855 -0.21547,-1.34669 -0.64642,-2.47792 -1.45443,-3.23206 -0.21547,-0.21548 -0.64642,-0.16161 -0.91576,0.10773 -0.26933,0.26934 -0.3232,0.70028 -0.0539,0.91575 0.64641,0.59255 1.02348,1.61604 1.18509,2.74726 -0.0539,0.75415 -0.16161,1.61604 -0.37708,2.58566 -0.75415,3.82461 -2.90886,9.10365 -4.794231,15.13685 -1.831505,5.97932 -3.1782,11.74318 -2.424051,15.891 0.161604,1.02349 0.592546,1.88537 1.131224,2.47792 0.323207,0.48481 0.700282,0.91575 1.185092,1.18509 -0.107736,1.18509 0.323207,1.61603 0.754149,1.72377 0.05387,0 0.107736,0 0.161603,0 0.430944,0 0.861884,-0.26934 1.077354,-0.75415 0.26934,-0.53868 0.16161,-1.34669 -0.64641,-1.8315 0.10773,-0.53868 0.32321,-1.29283 0.64641,-2.37019 0.80802,-2.31631 3.71688,-5.60225 6.78735,-9.10366 3.12433,-3.60914 6.518,-7.43375 8.40337,-11.09676 -0.91575,2.96273 -2.37018,6.57187 -3.66301,10.61195 -1.72377,5.33292 -2.74726,10.7197 -1.56216,14.2211 0.10773,0.53868 0.3232,1.02349 0.59254,1.40057 0.32321,0.75415 0.75415,1.34669 1.5083,1.77763 -0.10774,1.1851 0.26934,1.61604 0.70028,1.72377 0.10774,0 0.1616,0 0.21547,0 0.43095,0 0.80802,-0.26934 1.07736,-0.75415 0.26934,-0.53867 0.1616,-1.34669 -0.64641,-1.8315 0.10773,-0.53868 0.26933,-1.29283 0.64641,-2.37018 0.43094,-1.29283 1.18509,-2.74726 2.10084,-4.25556 0.91576,-1.29283 2.10085,-2.69339 3.50141,-4.36329 4.30942,-4.95584 10.8813,-11.36611 17.50704,-19.23081 6.518,-7.81083 12.01252,-16.0526 12.92827,-22.73221 0.26934,-1.93924 0,-3.50141 -0.48481,-4.74037 z"
         style="fill:#ffffff;fill-opacity:1;stroke-width:0.352777"
         id="path2132" />
    </g>
  </g>
</svg>
